<svg xmlns="http://www.w3.org/2000/svg" viewBox="0 0 40 50" x="0px" y="0px"><path d="M1,40H39c.55,0,1-.45,1-1s-.45-1-1-1h-1V19c0-.55-.45-1-1-1h-6c-.55,0-1,.45-1,1v19h-1v-11c0-.55-.45-1-1-1h-6c-.55,0-1,.45-1,1v11h-1v-15c0-.55-.45-1-1-1h-6c-.55,0-1,.45-1,1v15h-1v-11c0-.55-.45-1-1-1H4c-.55,0-1,.45-1,1v11h-1V1c0-.55-.45-1-1-1S0,.45,0,1V39c0,.55,.45,1,1,1H1ZM32,22h1c.55,0,1,.45,1,1s-.45,1-1,1h-1v2h1c.55,0,1,.45,1,1s-.45,1-1,1h-1v2h1c.55,0,1,.45,1,1s-.45,1-1,1h-1v2h1c.55,0,1,.45,1,1s-.45,1-1,1h-1v2h4V20h-4v2h0Zm-9,8h1c.55,0,1,.45,1,1s-.45,1-1,1h-1v2h1c.55,0,1,.45,1,1s-.45,1-1,1h-1v2h4v-10h-4v2h0Zm-18,0h1c.55,0,1,.45,1,1s-.45,1-1,1h-1v2h1c.55,0,1,.45,1,1s-.45,1-1,1h-1v2h4v-10h-4v2h0Zm9,6v2h4v-14h-4v2h1c.55,0,1,.45,1,1s-.45,1-1,1h-1v2h1c.55,0,1,.45,1,1s-.45,1-1,1h-1v2h1c.55,0,1,.45,1,1s-.45,1-1,1h-1ZM31.22,14.13l-4.77,4.24c-.43-.24-.92-.37-1.45-.37-.86,0-1.63,.36-2.18,.94l-3.83-1.7c0-.08,0-.15,0-.23,0-1.66-1.34-3-3-3s-3,1.34-3,3c0,.08,0,.16,.01,.23l-3.83,1.7c-.55-.58-1.32-.94-2.18-.94-1.66,0-3,1.34-3,3s1.34,3,3,3,3-1.34,3-3c0-.08,0-.16,0-.23l3.83-1.7c.55,.58,1.32,.94,2.18,.94s1.63-.36,2.18-.94l3.83,1.7c0,.08-.01,.15-.01,.23,0,1.66,1.34,3,3,3s3-1.34,3-3c0-.4-.08-.78-.22-1.13l4.77-4.24c.43,.24,.92,.37,1.45,.37,1.66,0,3-1.34,3-3s-1.34-3-3-3-3,1.34-3,3c0,.4,.08,.78,.22,1.13h0Zm-6.22,5.87c.55,0,1,.45,1,1s-.45,1-1,1-1-.45-1-1,.45-1,1-1h0Zm-18,0c.55,0,1,.45,1,1s-.45,1-1,1-1-.45-1-1,.45-1,1-1h0Zm9-4c.55,0,1,.45,1,1s-.45,1-1,1-1-.45-1-1,.45-1,1-1h0Zm8-7h-1c-.55,0-1,.45-1,1v5c0,.55,.45,1,1,1h1c0,.55,.45,1,1,1s1-.45,1-1h1c.55,0,1-.45,1-1v-5c0-.55-.45-1-1-1h-1c0-.55-.45-1-1-1s-1,.45-1,1h0Zm-18,0h-1c-.55,0-1,.45-1,1v5c0,.55,.45,1,1,1h1c0,.55,.45,1,1,1s1-.45,1-1h1c.55,0,1-.45,1-1v-5c0-.55-.45-1-1-1h-1c0-.55-.45-1-1-1s-1,.45-1,1h0Zm18,2h2v3h-2v-3h0Zm-18,0h2v3h-2v-3h0Zm28,1c.55,0,1,.45,1,1s-.45,1-1,1-1-.45-1-1,.45-1,1-1h0ZM15,5h-1c-.55,0-1,.45-1,1v5c0,.55,.45,1,1,1h1c0,.55,.45,1,1,1s1-.45,1-1h1c.55,0,1-.45,1-1V6c0-.55-.45-1-1-1h-1c0-.55-.45-1-1-1s-1,.45-1,1h0Zm0,2h2v3h-2v-3h0ZM33,1h-1c-.55,0-1,.45-1,1V7c0,.55,.45,1,1,1h1c0,.55,.45,1,1,1s1-.45,1-1h1c.55,0,1-.45,1-1V2c0-.55-.45-1-1-1h-1c0-.55-.45-1-1-1s-1,.45-1,1h0Zm0,2h2v3h-2V3h0Z" fill-rule="evenodd" fill="rgb(225,0,0)"/></svg>